<?xml version="1.0" standalone="no"?>
<!DOCTYPE svg PUBLIC "-//W3C//DTD SVG 20010904//EN"
 "http://www.w3.org/TR/2001/REC-SVG-20010904/DTD/svg10.dtd">
<svg version="1.0" xmlns="http://www.w3.org/2000/svg"
 width="910.000000pt" height="800.000000pt" viewBox="0 0 945.000000 200.000000"
 preserveAspectRatio="xMidYMid meet">
<metadata>
Created by potrace 1.16, written by Peter Selinger 2001-2019
</metadata>
<g transform="translate(0.000000,200.000000) scale(0.100000,-0.300000)"
fill="#c8dee6" stroke="none">
<path d="M8367 1980 c-164 -48 -342 -178 -494 -360 -73 -87 -162 -247 -196
-355 -9 -27 -33 -99 -53 -160 -92 -274 -38 -532 153 -735 206 -219 493 -319
829 -290 176 16 353 77 494 173 165 112 297 299 336 475 21 95 15 295 -11 362
-12 31 -17 69 -16 122 2 86 -18 146 -60 184 -38 34 -134 81 -181 89 -68 12
-93 35 -113 107 -44 161 -156 301 -291 365 -76 36 -82 37 -204 40 -101 2 -138
-1 -193 -17z m312 -41 c88 -30 177 -117 225 -220 19 -41 38 -87 42 -102 l6
-28 -49 20 c-27 10 -98 29 -158 41 -148 31 -353 25 -495 -14 -189 -53 -354
-153 -487 -299 -24 -26 -43 -44 -43 -42 0 18 116 231 152 280 145 195 327 330
512 377 91 23 207 18 295 -13z m77 -323 c133 -28 236 -77 213 -101 -4 -3 -57
-10 -118 -15 -304 -27 -677 -162 -916 -331 -113 -81 -233 -198 -274 -269 l-32
-55 6 75 c12 137 14 148 37 207 50 123 147 243 263 325 116 82 297 154 450
178 81 12 284 5 371 -14z m219 -275 c-7 -97 -42 -245 -79 -340 -33 -83 -120
-245 -159 -296 -17 -22 -32 -42 -33 -44 -2 -2 -60 -23 -131 -46 -338 -114
-681 -127 -824 -33 -48 32 -82 101 -76 155 11 107 100 220 268 339 184 131
309 192 537 265 174 55 445 105 491 91 10 -4 12 -23 6 -91z m187 73 c28 -8
137 -135 164 -191 l25 -53 -26 -52 c-33 -70 -74 -118 -164 -191 -70 -56 -219
-157 -232 -157 -4 0 11 33 32 73 74 141 120 329 123 500 l1 87 30 -6 c17 -3
38 -8 47 -10z m235 -428 c12 -136 -37 -285 -140 -421 -121 -161 -320 -278
-557 -327 -78 -16 -123 -19 -250 -16 -91 3 -164 9 -175 16 -19 11 -18 11 6 12
38 0 133 35 205 74 131 72 271 198 351 314 32 46 54 65 119 102 195 109 320
210 385 312 l33 51 9 -29 c5 -16 11 -56 14 -88z m-820 -453 c-144 -130 -300
-207 -447 -220 -56 -5 -73 -2 -110 17 -61 30 -158 100 -198 143 l-33 34 53
-15 c37 -11 99 -16 203 -16 172 0 313 23 475 78 52 18 101 34 108 34 7 1 -16
-24 -51 -55z"/>
<path d="M4425 1958 c-3 -7 -4 -443 -3 -968 3 -841 5 -955 18 -955 13 0 15
114 15 964 0 762 -3 965 -12 968 -7 3 -15 -1 -18 -9z"/>
<path d="M3250 1643 c-46 -18 -50 -30 -50 -170 0 -120 2 -135 20 -153 31 -31
93 -27 120 7 20 26 21 37 18 155 -2 97 -7 131 -18 142 -17 18 -68 28 -90 19z
m58 -162 c3 -133 -11 -167 -52 -125 -12 12 -16 37 -16 110 0 106 10 137 43
132 21 -3 22 -8 25 -117z"/>
<path d="M3964 1641 c-36 -16 -46 -60 -42 -184 4 -135 15 -157 80 -157 61 0
78 25 78 115 l0 75 -40 0 c-33 0 -40 -3 -40 -20 0 -13 7 -20 20 -20 17 0 20
-7 20 -39 0 -36 -19 -71 -39 -71 -23 0 -31 31 -31 126 0 115 4 134 31 134 20
0 39 -28 39 -59 0 -14 6 -21 20 -21 17 0 20 7 20 39 0 22 -7 48 -17 60 -21 24
-68 35 -99 22z"/>
<path d="M4820 1630 c-20 -20 -20 -33 -20 -588 l0 -568 23 -44 c38 -75 56 -80
317 -80 163 0 229 3 238 12 7 7 12 44 12 95 0 80 -1 84 -26 93 -14 6 -116 10
-227 10 l-201 0 26 27 c15 16 32 41 37 56 7 19 11 190 11 498 0 548 8 509
-105 509 -52 0 -69 -4 -85 -20z"/>
<path d="M5548 1639 c-17 -9 -18 -50 -18 -637 0 -475 3 -631 12 -640 19 -19
153 -16 172 4 14 14 16 85 16 634 l0 619 -22 15 c-26 18 -133 21 -160 5z"/>
<path d="M6065 1639 c-17 -4 -41 -18 -54 -30 -47 -44 -51 -71 -51 -339 0 -271
3 -293 54 -340 26 -24 35 -25 172 -30 114 -4 147 -8 154 -20 5 -8 10 -79 10
-156 0 -110 -3 -144 -14 -153 -9 -7 -42 -11 -88 -9 l-73 3 -5 66 c-7 90 -16
99 -105 99 -104 0 -108 -6 -104 -162 4 -108 7 -127 26 -154 41 -57 71 -64 267
-64 196 0 224 6 269 59 l27 33 0 280 c0 264 -1 283 -20 313 -33 53 -71 65
-212 65 -83 0 -128 4 -136 12 -8 8 -12 47 -12 107 0 118 -12 162 -51 195 l-31
26 119 0 c79 0 123 -4 131 -12 7 -7 12 -39 12 -73 0 -34 5 -66 12 -73 18 -18
162 -16 178 2 8 11 11 55 8 150 -3 134 -3 135 -32 165 -17 17 -46 36 -65 41
-44 12 -344 12 -386 -1z"/>
<path d="M6728 1639 c-15 -8 -18 -25 -18 -94 0 -100 5 -105 102 -105 37 0 69
-5 76 -12 9 -9 12 -140 12 -529 0 -457 2 -519 16 -533 19 -20 153 -23 172 -4
9 9 12 134 12 500 0 526 0 526 -52 562 -21 15 -14 16 98 16 149 0 154 3 154
108 0 105 10 102 -300 102 -154 0 -262 -5 -272 -11z"/>
<path d="M1700 1470 l0 -170 70 0 c68 0 70 1 70 25 0 23 -4 25 -45 25 l-45 0
0 145 0 145 -25 0 -25 0 0 -170z"/>
<path d="M1920 1490 c0 -137 2 -152 20 -170 28 -28 90 -27 116 1 17 18 19 40
22 170 l3 149 -25 0 -26 0 0 -139 c0 -144 -7 -169 -44 -155 -14 5 -16 26 -16
150 l0 144 -25 0 -25 0 0 -150z"/>
<path d="M2160 1633 c0 -5 13 -41 29 -82 l29 -74 -34 -86 c-19 -47 -34 -87
-34 -88 0 -2 11 -3 24 -3 20 0 27 10 46 61 13 33 26 57 31 52 4 -4 16 -30 27
-58 16 -40 25 -51 46 -53 14 -2 26 -2 26 0 0 2 -15 42 -34 89 l-34 86 29 74
c16 41 29 77 29 82 0 4 -10 7 -23 7 -19 0 -26 -10 -42 -55 -10 -31 -22 -52
-25 -48 -4 4 -15 29 -25 56 -14 38 -22 47 -41 47 -13 0 -24 -3 -24 -7z"/>
<path d="M2420 1470 l0 -170 75 0 c73 0 75 1 75 25 0 23 -3 25 -50 25 l-50 0
0 50 0 50 40 0 c36 0 40 3 40 25 0 23 -4 25 -40 25 l-40 0 0 50 0 50 50 0 c43
0 50 3 50 20 0 18 -7 20 -75 20 l-75 0 0 -170z"/>
<path d="M2650 1471 c0 -164 1 -171 20 -171 19 0 20 7 21 108 l1 107 19 -85
c10 -47 21 -95 24 -108 4 -17 12 -22 28 -20 19 3 24 16 43 108 l22 105 1 -107
c1 -101 2 -108 21 -108 19 0 20 7 20 170 l0 170 -29 0 c-34 0 -33 2 -56 -122
-10 -54 -21 -96 -23 -94 -2 3 -14 51 -26 108 l-22 103 -32 3 -32 3 0 -170z"/>
<path d="M2960 1470 l0 -170 55 0 c75 0 105 28 105 97 0 27 -7 58 -15 70 -10
14 -12 24 -5 28 5 3 10 30 10 60 0 71 -14 85 -91 85 l-59 0 0 -170z"/>
<path d="M3440 1499 c0 -176 9 -199 81 -199 65 0 74 20 77 191 l3 149 -25 0
-26 0 0 -139 c0 -111 -3 -141 -15 -151 -12 -10 -18 -10 -30 0 -12 10 -15 40
-15 151 l0 139 -25 0 -25 0 0 -141z"/>
<path d="M3680 1470 l0 -170 25 0 c24 0 25 2 25 71 l0 70 28 -3 c26 -3 27 -6
32 -68 5 -63 6 -65 34 -68 23 -3 28 0 22 13 -3 9 -6 41 -6 70 0 32 -6 59 -14
67 -11 12 -11 17 0 33 19 25 18 105 -2 133 -13 19 -24 22 -80 22 l-64 0 0
-170z"/>
<path d="M130 1000 c0 -163 1 -170 20 -170 19 0 20 7 21 113 l1 112 36 -112
c32 -102 38 -113 59 -113 l23 0 0 170 c0 163 -1 170 -20 170 -19 0 -20 -7 -21
-97 l-1 -98 -32 97 c-29 92 -33 98 -58 98 l-28 0 0 -170z"/>
<path d="M398 1153 c-42 -49 -29 -105 38 -174 36 -37 45 -52 42 -75 -2 -23 -8
-29 -28 -29 -21 0 -26 5 -28 33 -3 26 -7 32 -28 32 -27 0 -31 -20 -13 -67 13
-36 25 -43 76 -43 52 0 73 25 73 87 0 38 -6 48 -55 97 -56 55 -67 84 -40 106
20 17 43 6 51 -25 9 -36 44 -34 44 3 0 47 -25 72 -74 72 -28 0 -48 -6 -58 -17z"/>
<path d="M600 1150 c0 -16 7 -20 30 -20 l30 0 0 -150 0 -150 25 0 25 0 0 150
0 150 30 0 c23 0 30 4 30 20 0 18 -7 20 -85 20 -78 0 -85 -2 -85 -20z"/>
<path d="M840 1000 l0 -170 25 0 25 0 0 170 0 170 -25 0 -25 0 0 -170z"/>
<path d="M960 1150 c0 -16 7 -20 30 -20 l30 0 0 -150 0 -150 25 0 25 0 0 150
0 150 30 0 c23 0 30 4 30 20 0 18 -7 20 -85 20 -78 0 -85 -2 -85 -20z"/>
<path d="M1200 1030 c0 -180 8 -200 80 -200 75 0 80 13 80 192 0 141 -1 148
-20 148 -19 0 -20 -7 -20 -124 0 -136 -9 -176 -39 -176 -28 0 -31 18 -31 166
l0 134 -25 0 -25 0 0 -140z"/>
<path d="M1430 1150 c0 -16 7 -20 30 -20 l30 0 0 -150 0 -150 25 0 25 0 0 150
0 150 30 0 c23 0 30 4 30 20 0 18 -7 20 -85 20 -78 0 -85 -2 -85 -20z"/>
<path d="M1670 1000 l0 -170 75 0 c68 0 75 2 75 20 0 17 -7 20 -50 20 l-50 0
0 55 0 55 40 0 c33 0 40 3 40 20 0 17 -7 20 -40 20 l-40 0 0 55 0 55 50 0 c43
0 50 3 50 20 0 18 -7 20 -75 20 l-75 0 0 -170z"/>
<path d="M2041 1144 c-18 -24 -21 -41 -21 -141 0 -150 11 -173 86 -173 67 0
74 15 74 168 0 119 -2 134 -20 152 -31 31 -93 27 -119 -6z m89 -33 c16 -31 13
-203 -4 -227 -12 -15 -18 -17 -33 -8 -15 9 -18 28 -21 119 -3 107 4 135 34
135 7 0 18 -9 24 -19z"/>
<path d="M2270 1000 c0 -163 1 -170 20 -170 18 0 20 7 20 70 l0 70 40 0 c36 0
40 3 40 25 0 23 -4 25 -40 25 l-40 0 0 55 0 55 50 0 c43 0 50 3 50 20 0 18 -7
20 -70 20 l-70 0 0 -170z"/>
<path d="M2630 1143 c-35 -45 -23 -94 40 -158 42 -43 51 -58 48 -81 -2 -23 -8
-29 -28 -29 -21 0 -26 5 -28 33 -3 27 -7 32 -29 32 -24 0 -25 -2 -20 -40 7
-58 21 -70 78 -70 57 0 79 23 79 83 0 33 -8 47 -55 96 -56 59 -67 89 -40 111
21 18 45 5 45 -25 0 -20 5 -25 25 -25 28 0 33 25 14 63 -16 30 -28 37 -71 37
-28 0 -42 -6 -58 -27z"/>
<path d="M2870 1150 c-18 -18 -20 -33 -20 -148 0 -154 8 -172 74 -172 54 0 74
20 82 83 7 45 6 47 -19 47 -22 0 -26 -5 -29 -36 -4 -47 -32 -68 -54 -40 -10
14 -14 48 -14 116 0 108 14 144 47 124 10 -6 19 -25 21 -43 3 -26 7 -31 29
-31 24 0 25 2 19 42 -4 23 -14 50 -23 60 -23 25 -87 24 -113 -2z"/>
<path d="M3220 1000 l0 -170 75 0 c68 0 75 2 75 20 0 17 -7 20 -50 20 l-50 0
0 55 0 55 40 0 c33 0 40 3 40 20 0 17 -7 20 -40 20 l-40 0 0 55 0 55 50 0 c43
0 50 3 50 20 0 18 -7 20 -75 20 l-75 0 0 -170z"/>
<path d="M3450 1000 c0 -163 1 -170 20 -170 19 0 20 7 21 113 l1 112 36 -112
c32 -102 38 -113 59 -113 l23 0 0 170 c0 163 -1 170 -20 170 -19 0 -20 -7 -21
-97 l-1 -98 -32 97 c-29 92 -33 98 -58 98 l-28 0 0 -170z"/>
<path d="M3717 1152 c-14 -15 -17 -42 -17 -154 0 -155 6 -168 77 -168 53 0 73
23 73 83 0 40 -3 47 -19 47 -15 0 -20 -8 -23 -36 -4 -44 -28 -65 -52 -45 -22
18 -23 208 -2 237 20 26 50 8 54 -35 2 -23 8 -31 23 -31 16 0 19 7 19 43 0 30
-6 49 -18 60 -26 23 -94 22 -115 -1z"/>
<path d="M3940 1000 l0 -170 70 0 c63 0 70 2 70 20 0 17 -7 20 -50 20 l-50 0
0 55 0 55 40 0 c33 0 40 3 40 20 0 17 -7 20 -40 20 l-40 0 0 55 0 55 50 0 c43
0 50 3 50 20 0 18 -7 20 -70 20 l-70 0 0 -170z"/>
<path d="M2265 675 c-24 -23 -25 -30 -25 -150 0 -120 1 -127 25 -150 55 -56
135 -15 135 70 0 41 -2 45 -24 45 -22 0 -25 -5 -28 -42 -3 -38 -6 -43 -28 -43
l-25 0 0 120 0 120 25 0 c21 0 26 -5 28 -32 3 -27 7 -33 28 -33 21 0 24 5 24
35 0 46 -37 85 -80 85 -19 0 -40 -9 -55 -25z"/>
<path d="M3005 675 c-24 -23 -25 -30 -25 -150 0 -120 1 -127 25 -150 32 -33
78 -33 110 0 24 23 25 30 25 150 0 120 -1 127 -25 150 -15 16 -36 25 -55 25
-19 0 -40 -9 -55 -25z"/>
<path d="M3466 679 c-26 -20 -26 -22 -26 -154 0 -132 0 -134 26 -154 36 -28
79 -27 109 4 24 23 25 30 25 150 0 120 -1 127 -25 150 -30 31 -73 32 -109 4z
m79 -154 c0 -110 -2 -120 -19 -123 -34 -7 -46 25 -46 121 0 99 10 130 43 125
21 -3 22 -7 22 -123z"/>
<path d="M3705 675 c-24 -23 -25 -30 -25 -150 0 -120 1 -127 25 -150 32 -33
78 -33 110 0 22 21 25 33 25 95 l0 70 -40 0 c-33 0 -40 -3 -40 -20 0 -11 7
-20 16 -20 12 0 14 -10 12 -47 -3 -44 -5 -48 -28 -48 l-25 0 0 120 0 120 25 0
c21 0 26 -5 28 -32 3 -28 7 -33 29 -33 24 0 25 2 20 42 -10 75 -82 104 -132
53z"/>
<path d="M926 540 c-15 -82 -30 -158 -33 -170 -4 -16 -1 -20 21 -20 20 0 26 5
26 23 0 36 14 49 51 45 29 -3 35 -7 39 -33 4 -22 11 -31 28 -33 15 -2 22 2 22
12 0 14 -41 240 -55 304 -4 17 -12 22 -38 22 l-33 0 -28 -150z"/>
<path d="M1160 520 c0 -163 1 -170 20 -170 19 0 20 7 21 118 l1 117 37 -115
c31 -97 40 -115 59 -118 22 -3 22 -3 22 167 0 164 -1 171 -20 171 -18 0 -20
-7 -21 -92 l-1 -93 -30 93 c-29 88 -32 92 -59 92 l-29 0 0 -170z"/>
<path d="M1410 519 l0 -171 60 4 c95 7 100 15 100 173 0 159 -3 165 -98 165
l-62 0 0 -171z m110 112 c5 -11 10 -59 10 -106 0 -98 -10 -125 -45 -125 l-25
0 0 125 0 125 25 0 c14 0 29 -8 35 -19z"/>
<path d="M1770 670 c0 -16 7 -20 30 -20 l30 0 0 -150 0 -150 25 0 25 0 0 150
0 150 30 0 c23 0 30 4 30 20 0 18 -7 20 -85 20 -78 0 -85 -2 -85 -20z"/>
<path d="M2020 520 l0 -170 70 0 c68 0 70 1 70 25 0 23 -3 25 -50 25 l-50 0 0
55 0 55 40 0 c33 0 40 3 40 20 0 17 -7 20 -40 20 l-40 0 0 50 0 50 50 0 c43 0
50 3 50 20 0 18 -7 20 -70 20 l-70 0 0 -170z"/>
<path d="M2480 520 l0 -170 25 0 c24 0 25 2 25 75 l0 75 35 0 35 0 0 -75 c0
-73 1 -75 25 -75 l25 0 0 170 0 170 -25 0 c-24 0 -25 -2 -25 -70 l0 -70 -35 0
-35 0 0 70 c0 68 -1 70 -25 70 l-25 0 0 -170z"/>
<path d="M2730 520 c0 -163 1 -170 20 -170 19 0 20 7 21 123 l0 122 40 -122
c37 -113 42 -123 64 -123 l25 0 0 170 0 170 -25 0 c-25 0 -25 -1 -26 -87 l-1
-88 -30 88 c-28 83 -31 87 -59 87 l-29 0 0 -170z"/>
<path d="M3220 520 l0 -170 75 0 c73 0 75 1 75 25 0 23 -3 25 -50 25 l-50 0 0
145 0 145 -25 0 -25 0 0 -170z"/>
<path d="M3935 589 c26 -77 35 -120 35 -171 0 -66 1 -68 25 -68 24 0 25 2 25
63 0 46 10 92 35 167 19 57 35 105 35 107 0 2 -11 3 -25 3 -20 0 -26 -7 -35
-41 -6 -23 -16 -53 -22 -68 -10 -25 -11 -23 -32 39 -19 56 -26 65 -49 68 l-26
3 34 -102z"/>
</g>
</svg>
